<svg width="64" height="64" viewBox="0 0 64 64" fill="none" xmlns="http://www.w3.org/2000/svg">
<path d="M37.3262 25.4245V18.6631C37.3262 15.8347 38.4498 13.1221 40.4498 11.1221C42.4498 9.12206 45.1624 7.99847 47.9908 7.99847H51.99C52.3436 7.99847 52.6827 8.13892 52.9327 8.38892C53.1827 8.63892 53.3231 8.978 53.3231 9.33155V13.3308C53.3231 16.1592 52.1995 18.8718 50.1995 20.8718C48.1995 22.8718 45.4869 23.9954 42.6585 23.9954C39.8301 23.9954 37.1175 25.119 35.1175 27.119C33.1175 29.119 31.9939 31.8316 31.9939 34.66C31.9939 39.9923 34.66 42.6585 34.66 47.9908C34.66 50.8752 33.7245 53.6818 31.9939 55.9893" stroke="white" stroke-width="6.66539" stroke-linecap="round" stroke-linejoin="round"/>
<path d="M10.6646 23.9954C12.6452 22.51 15.0002 21.6054 17.4659 21.3831C19.9316 21.1608 22.4105 21.6294 24.6248 22.7366C26.8391 23.8438 28.7014 25.5457 30.0029 27.6516C31.3045 29.7575 31.9939 32.1843 31.9939 34.66C30.0133 36.1454 27.6583 37.05 25.1926 37.2723C22.7269 37.4946 20.248 37.026 18.0337 35.9188C15.8194 34.8116 13.9571 33.1097 12.6556 31.0038C11.354 28.8978 10.6646 26.4711 10.6646 23.9954Z" stroke="white" stroke-width="6.66539" stroke-linecap="round" stroke-linejoin="round"/>
<path d="M13.3308 55.9893H50.657" stroke="white" stroke-width="6.66539" stroke-linecap="round" stroke-linejoin="round"/>
</svg>
