<svg width="90" height="90" viewBox="0 0 90 90" xmlns="http://www.w3.org/2000/svg">
  <!-- Bag shape -->
  <path d="M20 38 Q20 30 28 30 L62 30 Q70 30 70 38 L66 65 Q65 70 60 70 L30 70 Q25 70 24 65 Z" fill="#f0f0f0" stroke="#1a1a1a" stroke-width="2.5"/>
  <!-- Bag handle -->
  <path d="M33 30 Q33 20 45 20 Q57 20 57 30" fill="none" stroke="#1a1a1a" stroke-width="2.5" stroke-linecap="round"/>
  <!-- Big leaf -->
  <path d="M45 62 Q35 52 37 42 Q45 44 47 54 Z" fill="#2ecc71"/>
  <path d="M45 62 Q55 52 53 42 Q45 44 43 54 Z" fill="#27ae60"/>
  <line x1="45" y1="62" x2="45" y2="40" stroke="#1e8449" stroke-width="2" stroke-linecap="round"/>
  <!-- Small dots decoration -->
  <circle cx="28" cy="50" r="2" fill="#ddd"/>
  <circle cx="62" cy="50" r="2" fill="#ddd"/>
</svg>
