<svg width="100" height="100" viewBox="0 0 100 100" xmlns="http://www.w3.org/2000/svg">
  <path d="M28 35 L34 62 L72 62 L78 35 Z" fill="none" stroke="#1a1a1a" stroke-width="3.5" stroke-linejoin="round"/>
  <path d="M22 28 L32 28 L38 62" fill="none" stroke="#1a1a1a" stroke-width="3.5" stroke-linecap="round" stroke-linejoin="round"/>
  <circle cx="42" cy="70" r="5" fill="#1a1a1a"/>
  <circle cx="64" cy="70" r="5" fill="#1a1a1a"/>
  <path d="M53 57 C53 50 46 44 46 44 C46 44 40 50 46 56 C46 56 48 58 53 57 Z" fill="#2a8a40"/>
  <path d="M53 57 C53 50 60 44 60 44 C60 44 66 50 60 56 C60 56 58 58 53 57 Z" fill="#2a8a40"/>
  <line x1="53" y1="57" x2="53" y2="43" stroke="#1e6e30" stroke-width="1.5" stroke-linecap="round"/>
</svg>
